<svg xmlns="http://www.w3.org/2000/svg" width="24" height="24" viewBox="0 0 24 24" fill="none" stroke="currentColor" stroke-width="2" stroke-linecap="round" stroke-linejoin="round">
  <path d="M10 5.172C10 3.782 8.423 2.679 6.5 3c-2.823.47-4.113 6.006-4 7 .08.703 1.725 1.722 3.656 1 1.261-.472 1.96-1.45 2.344-2.5"/>
  <path d="M14.267 5.172c0-1.39 1.577-2.493 3.5-2.172 2.823.47 4.113 6.006 4 7-.08.703-1.725 1.722-3.656 1-1.261-.472-1.96-1.45-2.344-2.5"/>
  <path d="M8 14v.5c0 .828.672 1.5 1.5 1.5s1.5-.672 1.5-1.5V14"/>
  <path d="M16 14v.5c0 .828-.672 1.5-1.5 1.5S13 15.328 13 14.5V14"/>
  <path d="M12 17.5L10.5 16 13.5 16 12 17.5z"/>
  <circle cx="12" cy="12" r="8"/>
</svg> 